<?xml version="1.0" encoding="UTF-8"?>
<svg width="50px" height="42px" viewBox="0 0 50 42" version="1.1" xmlns="http://www.w3.org/2000/svg" xmlns:xlink="http://www.w3.org/1999/xlink">
    <!-- Generator: Sketch 57.1 (83088) - https://sketch.com -->
    <title>dm-system</title>
    <desc>Created with Sketch.</desc>
    <defs>
        <linearGradient x1="50%" y1="0%" x2="50%" y2="100%" id="linearGradient-1">
            <stop stop-color="#8697CB" offset="0%"></stop>
            <stop stop-color="#556080" offset="100%"></stop>
        </linearGradient>
    </defs>
    <g id="页面-1" stroke="none" stroke-width="1" fill="none" fill-rule="evenodd">
        <g id="画板备份-4" transform="translate(0.000000, -4.000000)" fill-rule="nonzero">
            <g id="dm-system" transform="translate(0.000000, 4.000000)">
                <polygon id="路径" fill="#5C688B" points="49.7416835 20.390625 45 24 50 29 25 42 3.19744231e-14 29 6 24 0.010500672 20.390625 12.0696405 13.8986895 12.0696405 16.1755712 4.28872648 20.3892809 24.8760921 31.5263777 45.4634577 20.3892809 37.2900706 15.9618616 37.2900706 13.6849798"></polygon>
                <path d="M35.1906082,3.43229167 L35.1906082,9.18497984 C35.1906082,10.6056788 30.6207157,11.7562164 24.9930276,11.7562164 C19.3559308,11.7562164 14.7954469,10.6056788 14.7954469,9.18632392 L14.7954469,3.43229167 L14.7954469,3.46186156 C14.7954469,4.8812164 19.3653394,6.03040995 24.9930276,6.03040995 C30.6301243,6.03040995 35.1906082,4.8812164 35.1906082,3.46320565 L35.1906082,3.43229167 Z M35.1906082,10.2078293 L35.1906082,15.9618616 C35.1906082,17.3825605 30.6207157,18.531754 24.9930276,18.531754 C19.3559308,18.531754 14.7954469,17.3825605 14.7954469,15.9618616 L14.7954469,10.2091734 L14.7954469,10.2387433 C14.7954469,11.6580981 19.3653394,12.8059476 24.9930276,12.8059476 C30.6301243,12.8059476 35.1906082,11.6580981 35.1906082,10.2387433 L35.1906082,10.2078293 Z M35.1906082,16.9255712 L35.1906082,22.6782594 C35.1906082,24.0989583 30.6207157,25.2481519 24.9930276,25.2481519 C19.3559308,25.2481519 14.7954469,24.0989583 14.7954469,22.6796035 L14.7954469,16.9242272 L14.7954469,16.953797 C14.7954469,18.374496 19.3653394,19.5236895 24.9930276,19.5236895 C30.6301243,19.5236895 35.1906082,18.374496 35.1906082,16.953797 L35.1906082,16.9242272 L35.1906082,16.9255712 Z M25.0024362,5.1594422 C19.3707157,5.1594422 14.8048555,4.01024866 14.8048555,2.59089382 C14.8048555,1.17153898 19.3707157,0.0210013441 25.0037802,0.0210013441 C30.6341566,0.0210013441 35.2000168,1.17153898 35.2000168,2.59089382 C35.2000168,4.01024866 30.6355007,5.15809812 25.0037802,5.15809812 L25.0024362,5.1594422 Z" id="形状" fill="url(#linearGradient-1)"></path>
            </g>
        </g>
    </g>
</svg>