<?xml version="1.0" encoding="UTF-8"?>
<svg width="34px" height="34px" viewBox="0 0 34 34" version="1.1" xmlns="http://www.w3.org/2000/svg" xmlns:xlink="http://www.w3.org/1999/xlink">
    <!-- Generator: Sketch 57.1 (83088) - https://sketch.com -->
    <title>home</title>
    <desc>Created with Sketch.</desc>
    <g id="页面-1" stroke="none" stroke-width="1" fill="none" fill-rule="evenodd">
        <g id="画板" transform="translate(-123.000000, -95.000000)" fill-rule="nonzero">
            <g id="home" transform="translate(123.000000, 95.000000)">
                <polygon id="路径" fill="#E8EAF6" points="32.2487837 29.6427899 1.70986153 29.6427899 1.70986153 15.9881714 16.9793226 1.48013931 32.2487837 15.9881714"></polygon>
                <path d="M29.7038735,14.2813441 L25.4623565,10.0142758 L25.4623565,4.04038027 L29.7038735,4.04038027 L29.7038735,14.2813441 Z M1.70986153,29.6427899 L32.2487837,29.6427899 L32.2487837,33.9098582 L1.70986153,33.9098582 L1.70986153,29.6427899 Z" id="形状" fill="#ABB0D1"></path>
                <polygon id="路径" fill="#B38686" points="16.9793226 0.029336081 0.0132547273 15.9028301 1.70986153 17.7803401 16.9793226 3.52833208 32.2487837 17.7803401 33.9453905 15.9028301"></polygon>
                <polygon id="路径" fill="#B38686" points="11.8895022 20.2552397 22.069143 20.2552397 22.069143 33.9098582 11.8895022 33.9098582"></polygon>
                <polygon id="路径" fill="#BDB195" points="14.4344124 10.8676895 19.5242328 10.8676895 19.5242328 15.9881714 14.4344124 15.9881714"></polygon>
                <path d="M19.9483845,26.6558421 C19.6938935,26.6558421 19.5242328,26.8265248 19.5242328,27.0825489 L19.5242328,28.7893763 C19.5242328,29.0454004 19.6938935,29.2160831 19.9483845,29.2160831 C20.2028755,29.2160831 20.3725362,29.0454003 20.3725362,28.7893763 L20.3725362,27.0825489 C20.3725362,26.8265248 20.2028755,26.6558421 19.9483845,26.6558421 Z" id="路径" fill="#FF8A65"></path>
            </g>
        </g>
    </g>
</svg>